<svg width="95" height="31" viewBox="0 0 95 31" fill="none" xmlns="http://www.w3.org/2000/svg">
<path d="M15.5 1.7C7.87847 1.7 1.7 7.87847 1.7 15.5C1.7 23.1215 7.87847 29.3 15.5 29.3C18.9176 29.3 22.045 28.0577 24.4553 26H26.9019C24.0694 29.0741 20.0096 31 15.5 31C6.93959 31 0 24.0604 0 15.5C0 6.93959 6.93959 0 15.5 0C21.3398 0 26.4253 3.22952 29.0679 8C30.5 10.5 32.5 16 39 16H94.15C94.6194 16 95 16.3806 95 16.85C95 17.3194 94.6194 17.7 94.15 17.7H38.5C31 17.7 29.3146 11.4357 27.086 8C24.6264 4.20831 20.3561 1.7 15.5 1.7Z" fill="#259A54"/>
</svg>
